<mxfile host="65bd71144e">
    <diagram id="ueg6NqKU8GOXhDqJm9ao" name="Page-1">
        <mxGraphModel dx="721" dy="1212" grid="1" gridSize="10" guides="1" tooltips="1" connect="1" arrows="1" fold="1" page="1" pageScale="1" pageWidth="600" pageHeight="600" background="#ffffff" math="0" shadow="0">
            <root>
                <mxCell id="0"/>
                <mxCell id="1" parent="0"/>
                <mxCell id="5" value="" style="group" parent="1" vertex="1" connectable="0">
                    <mxGeometry x="20" y="263" width="80" height="80" as="geometry"/>
                </mxCell>
                <mxCell id="3" value="1" style="ellipse;whiteSpace=wrap;html=1;aspect=fixed;fontSize=20;" parent="5" vertex="1">
                    <mxGeometry width="80" height="80" as="geometry"/>
                </mxCell>
                <mxCell id="35" style="edgeStyle=none;html=1;fontSize=16;" parent="1" source="3" target="46" edge="1">
                    <mxGeometry relative="1" as="geometry">
                        <mxPoint x="167.99999999999994" y="269.64000000000004" as="sourcePoint"/>
                        <mxPoint x="289.92000000000013" y="173.00000000000006" as="targetPoint"/>
                    </mxGeometry>
                </mxCell>
                <mxCell id="36" value="&lt;font&gt;a&lt;/font&gt;" style="edgeLabel;html=1;align=center;verticalAlign=middle;resizable=0;points=[];fontSize=20;" parent="35" vertex="1" connectable="0">
                    <mxGeometry x="0.0351" relative="1" as="geometry">
                        <mxPoint x="-1" as="offset"/>
                    </mxGeometry>
                </mxCell>
                <mxCell id="45" value="" style="group" parent="1" vertex="1" connectable="0">
                    <mxGeometry x="170" y="263" width="80" height="80" as="geometry"/>
                </mxCell>
                <mxCell id="46" value="2" style="ellipse;whiteSpace=wrap;html=1;aspect=fixed;fontSize=20;" parent="45" vertex="1">
                    <mxGeometry width="80" height="80" as="geometry"/>
                </mxCell>
                <mxCell id="217" value="" style="curved=1;endArrow=classic;html=1;fontSize=20;" parent="45" source="46" target="46" edge="1">
                    <mxGeometry width="50" height="50" relative="1" as="geometry">
                        <mxPoint x="23.327734276401316" y="1.7409067948713073" as="sourcePoint"/>
                        <mxPoint x="46.67226572359857" y="1.7409067948713073" as="targetPoint"/>
                        <Array as="points">
                            <mxPoint x="10" y="-42"/>
                            <mxPoint x="35" y="-62"/>
                            <mxPoint x="60" y="-42"/>
                        </Array>
                    </mxGeometry>
                </mxCell>
                <mxCell id="218" value="a" style="edgeLabel;html=1;align=center;verticalAlign=middle;resizable=0;points=[];fontSize=20;" parent="217" vertex="1" connectable="0">
                    <mxGeometry x="0.0053" y="-3" relative="1" as="geometry">
                        <mxPoint as="offset"/>
                    </mxGeometry>
                </mxCell>
                <mxCell id="206" value="" style="group" parent="1" vertex="1" connectable="0">
                    <mxGeometry x="320" y="263" width="80" height="80" as="geometry"/>
                </mxCell>
                <mxCell id="207" value="3" style="ellipse;whiteSpace=wrap;html=1;aspect=fixed;fontSize=20;" parent="206" vertex="1">
                    <mxGeometry width="80" height="80" as="geometry"/>
                </mxCell>
                <mxCell id="256" value="" style="curved=1;endArrow=classic;html=1;fontSize=20;" edge="1" parent="206" source="207" target="207">
                    <mxGeometry width="50" height="50" relative="1" as="geometry">
                        <mxPoint x="31" y="1" as="sourcePoint"/>
                        <mxPoint x="54" as="targetPoint"/>
                        <Array as="points">
                            <mxPoint x="15" y="-43"/>
                            <mxPoint x="40" y="-63"/>
                            <mxPoint x="65" y="-43"/>
                        </Array>
                    </mxGeometry>
                </mxCell>
                <mxCell id="257" value="b" style="edgeLabel;html=1;align=center;verticalAlign=middle;resizable=0;points=[];fontSize=20;" vertex="1" connectable="0" parent="256">
                    <mxGeometry x="0.0053" y="-3" relative="1" as="geometry">
                        <mxPoint as="offset"/>
                    </mxGeometry>
                </mxCell>
                <mxCell id="212" style="edgeStyle=none;html=1;fontSize=16;entryX=0.956;entryY=0.375;entryDx=0;entryDy=0;entryPerimeter=0;exitX=0.016;exitY=0.366;exitDx=0;exitDy=0;exitPerimeter=0;" parent="1" source="207" target="46" edge="1">
                    <mxGeometry relative="1" as="geometry">
                        <mxPoint x="300" y="280" as="sourcePoint"/>
                        <mxPoint x="260" y="290" as="targetPoint"/>
                    </mxGeometry>
                </mxCell>
                <mxCell id="213" value="&lt;font&gt;a&lt;/font&gt;" style="edgeLabel;html=1;align=center;verticalAlign=middle;resizable=0;points=[];fontSize=20;" parent="212" vertex="1" connectable="0">
                    <mxGeometry x="0.0351" relative="1" as="geometry">
                        <mxPoint x="3" as="offset"/>
                    </mxGeometry>
                </mxCell>
                <mxCell id="215" style="edgeStyle=none;html=1;fontSize=16;entryX=0.065;entryY=0.681;entryDx=0;entryDy=0;entryPerimeter=0;exitX=0.96;exitY=0.692;exitDx=0;exitDy=0;exitPerimeter=0;" parent="1" source="46" target="207" edge="1">
                    <mxGeometry relative="1" as="geometry">
                        <mxPoint x="260" y="310" as="sourcePoint"/>
                        <mxPoint x="326" y="310" as="targetPoint"/>
                    </mxGeometry>
                </mxCell>
                <mxCell id="216" value="&lt;font&gt;b&lt;/font&gt;" style="edgeLabel;html=1;align=center;verticalAlign=middle;resizable=0;points=[];fontSize=20;" parent="215" vertex="1" connectable="0">
                    <mxGeometry x="0.0351" relative="1" as="geometry">
                        <mxPoint x="-1" as="offset"/>
                    </mxGeometry>
                </mxCell>
                <mxCell id="258" value="" style="group" vertex="1" connectable="0" parent="1">
                    <mxGeometry x="480" y="263" width="80" height="80" as="geometry"/>
                </mxCell>
                <mxCell id="259" value="5" style="ellipse;whiteSpace=wrap;html=1;aspect=fixed;fontSize=20;" vertex="1" parent="258">
                    <mxGeometry width="80" height="80" as="geometry"/>
                </mxCell>
                <mxCell id="266" value="" style="curved=1;endArrow=classic;html=1;fontSize=20;" edge="1" parent="258" source="259" target="259">
                    <mxGeometry width="50" height="50" relative="1" as="geometry">
                        <mxPoint x="29" as="sourcePoint"/>
                        <mxPoint x="51" as="targetPoint"/>
                        <Array as="points">
                            <mxPoint x="15" y="-45"/>
                            <mxPoint x="40" y="-65"/>
                            <mxPoint x="65" y="-45"/>
                        </Array>
                    </mxGeometry>
                </mxCell>
                <mxCell id="267" value="c" style="edgeLabel;html=1;align=center;verticalAlign=middle;resizable=0;points=[];fontSize=20;" vertex="1" connectable="0" parent="266">
                    <mxGeometry x="0.0053" y="-3" relative="1" as="geometry">
                        <mxPoint as="offset"/>
                    </mxGeometry>
                </mxCell>
                <mxCell id="275" value="" style="ellipse;whiteSpace=wrap;html=1;aspect=fixed;fillColor=none;" vertex="1" parent="258">
                    <mxGeometry x="5" y="5" width="70" height="70" as="geometry"/>
                </mxCell>
                <mxCell id="262" style="edgeStyle=none;html=1;fontSize=16;" edge="1" parent="1" source="207" target="259">
                    <mxGeometry relative="1" as="geometry">
                        <mxPoint x="300" y="411" as="sourcePoint"/>
                        <mxPoint x="378" y="410" as="targetPoint"/>
                    </mxGeometry>
                </mxCell>
                <mxCell id="263" value="&lt;font&gt;c&lt;/font&gt;" style="edgeLabel;html=1;align=center;verticalAlign=middle;resizable=0;points=[];fontSize=20;" vertex="1" connectable="0" parent="262">
                    <mxGeometry x="0.0351" relative="1" as="geometry">
                        <mxPoint x="-2" y="-4" as="offset"/>
                    </mxGeometry>
                </mxCell>
                <mxCell id="264" value="" style="group" vertex="1" connectable="0" parent="1">
                    <mxGeometry x="650" y="263" width="80" height="80" as="geometry"/>
                </mxCell>
                <mxCell id="265" value="4" style="ellipse;whiteSpace=wrap;html=1;aspect=fixed;fontSize=20;" vertex="1" parent="264">
                    <mxGeometry width="80" height="80" as="geometry"/>
                </mxCell>
                <mxCell id="273" value="" style="curved=1;endArrow=classic;html=1;fontSize=20;" edge="1" parent="264" source="265" target="265">
                    <mxGeometry width="50" height="50" relative="1" as="geometry">
                        <mxPoint x="29" as="sourcePoint"/>
                        <mxPoint x="51" as="targetPoint"/>
                        <Array as="points">
                            <mxPoint x="15" y="-47"/>
                            <mxPoint x="40" y="-67"/>
                            <mxPoint x="65" y="-47"/>
                        </Array>
                    </mxGeometry>
                </mxCell>
                <mxCell id="274" value="b" style="edgeLabel;html=1;align=center;verticalAlign=middle;resizable=0;points=[];fontSize=20;" vertex="1" connectable="0" parent="273">
                    <mxGeometry x="0.0053" y="-3" relative="1" as="geometry">
                        <mxPoint as="offset"/>
                    </mxGeometry>
                </mxCell>
                <mxCell id="268" style="edgeStyle=none;html=1;fontSize=16;exitX=0.986;exitY=0.349;exitDx=0;exitDy=0;exitPerimeter=0;entryX=0.033;entryY=0.331;entryDx=0;entryDy=0;entryPerimeter=0;" edge="1" parent="1" source="259" target="265">
                    <mxGeometry relative="1" as="geometry">
                        <mxPoint x="410" y="313" as="sourcePoint"/>
                        <mxPoint x="490" y="313" as="targetPoint"/>
                    </mxGeometry>
                </mxCell>
                <mxCell id="269" value="&lt;font&gt;b&lt;/font&gt;" style="edgeLabel;html=1;align=center;verticalAlign=middle;resizable=0;points=[];fontSize=20;" vertex="1" connectable="0" parent="268">
                    <mxGeometry x="0.0351" relative="1" as="geometry">
                        <mxPoint x="-2" y="-4" as="offset"/>
                    </mxGeometry>
                </mxCell>
                <mxCell id="270" style="edgeStyle=none;html=1;fontSize=16;exitX=0.042;exitY=0.694;exitDx=0;exitDy=0;exitPerimeter=0;entryX=0.934;entryY=0.694;entryDx=0;entryDy=0;entryPerimeter=0;" edge="1" parent="1" source="265" target="259">
                    <mxGeometry relative="1" as="geometry">
                        <mxPoint x="569" y="343" as="sourcePoint"/>
                        <mxPoint x="663" y="341" as="targetPoint"/>
                    </mxGeometry>
                </mxCell>
                <mxCell id="271" value="&lt;font&gt;c&lt;/font&gt;" style="edgeLabel;html=1;align=center;verticalAlign=middle;resizable=0;points=[];fontSize=20;" vertex="1" connectable="0" parent="270">
                    <mxGeometry x="0.0351" relative="1" as="geometry">
                        <mxPoint x="2" y="-4" as="offset"/>
                    </mxGeometry>
                </mxCell>
            </root>
        </mxGraphModel>
    </diagram>
</mxfile>